<?xml version="1.0" encoding="UTF-8"?>
<svg enable-background="new 0 0 56 56" version="1.1" viewBox="0 0 56 56" xml:space="preserve" xmlns="http://www.w3.org/2000/svg" xmlns:cc="http://creativecommons.org/ns#" xmlns:dc="http://purl.org/dc/elements/1.1/" xmlns:rdf="http://www.w3.org/1999/02/22-rdf-syntax-ns#"><metadata><rdf:RDF><cc:Work rdf:about=""><dc:format>image/svg+xml</dc:format><dc:type rdf:resource="http://purl.org/dc/dcmitype/StillImage"/></cc:Work></rdf:RDF></metadata><g transform="matrix(1.0799 0 0 1.1043 -2.6718 -4.1437)"><path d="m31.568 54.111c-12.684 0-22.966-11.256-22.966-25.141 0-13.885 10.282-25.141 22.966-25.141 12.684 0 22.966 11.256 22.966 25.141 0 13.885-10.282 25.141-22.966 25.141" fill="#fcc62d" stroke-width=".91742" onmousedown="; InkWeb.transmitAtt({from:this, to:['text4645'], att:'fill'})"/><path d="m8.602 28.97c0-12.842 8.7973-23.428 20.154-24.946-0.92238-0.1239-1.8598-0.19484-2.8121-0.19484-12.684 0-22.966 11.256-22.966 25.141 0 13.885 10.282 25.141 22.966 25.141 0.95238 0 1.8898-0.07093 2.8121-0.19395-11.356-1.5192-20.154-12.105-20.154-24.947" fill="#e4af18" stroke-width=".91742" onclick="; InkWeb.setAtt({el:['XMLID_91_'], att:'fill stroke stroke-width', val:'red black 5px'}); InkWeb.setAtt({el:['XMLID_91_'], att:'fill stroke stroke-width', val:'red black 5px'})" onmousedown="; InkWeb.transmitAtt({from:this, to:['text4645'], att:'fill'})"/><path d="m8.6011 29.869h-5.6224c0.01875 0.60429 0.05437 1.2032 0.11155 1.7958h5.6271c-0.058114-0.59171-0.097492-1.1906-0.11625-1.7958" fill="#ce9912" stroke-width=".91742" onclick="; InkWeb.setAtt({el:['XMLID_91_'], att:'fill stroke stroke-width', val:'red black 5px'}); InkWeb.setAtt({el:['XMLID_91_'], att:'fill stroke stroke-width', val:'red black 5px'})" onmousedown="; InkWeb.transmitAtt({from:this, to:['text4645'], att:'fill'})"/><path d="m8.8148 25.379h-5.6205c-0.077799 0.59171-0.13311 1.1915-0.17342 1.7958h5.6233c0.040303-0.60338 0.09468-1.2032 0.1706-1.7958" fill="#ce9912" stroke-width=".91742" onclick="; InkWeb.setAtt({el:['XMLID_91_'], att:'fill stroke stroke-width', val:'red black 5px'}); InkWeb.setAtt({el:['XMLID_91_'], att:'fill stroke stroke-width', val:'red black 5px'})" onmousedown="; InkWeb.transmitAtt({from:this, to:['text4645'], att:'fill'})"/><path d="m9.1166 34.358h-5.6252c0.12186 0.60698 0.26247 1.2059 0.42276 1.7958h5.6233c-0.16029-0.58902-0.29996-1.1879-0.42088-1.7958" fill="#ce9912" stroke-width=".91742" onclick="; InkWeb.setAtt({el:['XMLID_91_'], att:'fill stroke stroke-width', val:'red black 5px'}); InkWeb.setAtt({el:['XMLID_91_'], att:'fill stroke stroke-width', val:'red black 5px'})" onmousedown="; InkWeb.transmitAtt({from:this, to:['text4645'], att:'fill'})"/><path d="m10.428 38.848h-5.628c0.23903 0.61236 0.50244 1.2095 0.78459 1.7958h5.6261c-0.28215-0.58453-0.54368-1.1834-0.78271-1.7958" fill="#ce9912" stroke-width=".91742" onclick="; InkWeb.setAtt({el:['XMLID_91_'], att:'fill stroke stroke-width', val:'red black 5px'}); InkWeb.setAtt({el:['XMLID_91_'], att:'fill stroke stroke-width', val:'red black 5px'})" onmousedown="; InkWeb.transmitAtt({from:this, to:['text4645'], att:'fill'})"/><path d="m9.7953 20.89h-5.6196c-0.18185 0.58992-0.35246 1.187-0.49494 1.7958h5.6308c0.14154-0.60608 0.3009-1.2068 0.48369-1.7958" fill="#ce9912" stroke-width=".91742" onclick="; InkWeb.setAtt({el:['XMLID_91_'], att:'fill stroke stroke-width', val:'red black 5px'}); InkWeb.setAtt({el:['XMLID_91_'], att:'fill stroke stroke-width', val:'red black 5px'})" onmousedown="; InkWeb.transmitAtt({from:this, to:['text4645'], att:'fill'})"/><path d="m11.662 16.401h-5.6252c-0.3084 0.58453-0.59992 1.1825-0.86614 1.7958h5.628c0.26622-0.61326 0.55399-1.2122 0.86333-1.7958" fill="#ce9912" stroke-width=".91742" onclick="; InkWeb.setAtt({el:['XMLID_91_'], att:'fill stroke stroke-width', val:'red black 5px'}); InkWeb.setAtt({el:['XMLID_91_'], att:'fill stroke stroke-width', val:'red black 5px'})" onmousedown="; InkWeb.transmitAtt({from:this, to:['text4645'], att:'fill'})"/><path d="m15.487 11.014h-5.6308c-0.53337 0.57106-1.0405 1.17-1.5204 1.7958h5.629c0.47994-0.62584 0.988-1.2247 1.5223-1.7958" fill="#ce9912" stroke-width=".91742" onclick="; InkWeb.setAtt({el:['XMLID_91_'], att:'fill stroke stroke-width', val:'red black 5px'}); InkWeb.setAtt({el:['XMLID_91_'], att:'fill stroke stroke-width', val:'red black 5px'})" onmousedown="; InkWeb.transmitAtt({from:this, to:['text4645'], att:'fill'})"/><path d="m21.218 6.5234h-5.6374c-0.95706 0.52976-1.8766 1.1296-2.7521 1.7958h5.6327c0.87645-0.66534 1.797-1.2651 2.7568-1.7958" fill="#ce9912" stroke-width=".91742" onclick="; InkWeb.setAtt({el:['XMLID_91_'], att:'fill stroke stroke-width', val:'red black 5px'}); InkWeb.setAtt({el:['XMLID_91_'], att:'fill stroke stroke-width', val:'red black 5px'})" onmousedown="; InkWeb.transmitAtt({from:this, to:['text4645'], att:'fill'})"/><path d="m13.307 44.235h-5.6261c0.43494 0.62224 0.89426 1.2211 1.3808 1.7958h5.6308c-0.48744-0.57465-0.94863-1.1735-1.3854-1.7958" fill="#ce9912" stroke-width=".91742" onclick="; InkWeb.setAtt({el:['XMLID_91_'], att:'fill stroke stroke-width', val:'red black 5px'}); InkWeb.setAtt({el:['XMLID_91_'], att:'fill stroke stroke-width', val:'red black 5px'})" onmousedown="; InkWeb.transmitAtt({from:this, to:['text4645'], att:'fill'})"/><path d="m11.727 48.724c0.75271 0.64918 1.542 1.2526 2.3659 1.7958h5.6383c-0.82958-0.54502-1.6254-1.1439-2.3828-1.7958z" fill="#ce9912" stroke-width=".91742" onclick="; InkWeb.setAtt({el:['XMLID_91_'], att:'fill stroke stroke-width', val:'red black 5px'}); InkWeb.setAtt({el:['XMLID_91_'], att:'fill stroke stroke-width', val:'red black 5px'})" onmousedown="; InkWeb.transmitAtt({from:this, to:['text4645'], att:'fill'})"/><path d="m31.647 49.194h-0.07967c-0.65616 0-1.317-0.03773-1.9638-0.11134-0.51368-0.05926-0.88207-0.50551-0.81927-0.99846 0.05999-0.49205 0.51274-0.83504 1.0414-0.78476 0.5718 0.06554 1.1586 0.09877 1.7407 0.09877 0.51837 0 0.97675 0.40226 0.97675 0.8979 9.37e-4 0.49564-0.37776 0.8979-0.89613 0.8979m5.4518-0.96703c-0.3787 0-0.73584-0.22178-0.87832-0.58184-0.18279-0.46332 0.06279-0.9814 0.54649-1.1565 0.5418-0.19574 1.0808-0.4247 1.5992-0.67971 0.46213-0.22807 1.0255-0.05298 1.2636 0.38789 0.23622 0.44087 0.0553 0.9823-0.40682 1.2086-0.58211 0.28733-1.1858 0.54322-1.7951 0.76321-0.1078 0.0395-0.21935 0.05835-0.32902 0.05835m-12.687-0.68599c-0.14342 0-0.28871-0.03142-0.42369-0.09787-0.5793-0.28104-1.1502-0.598-1.6957-0.941-0.43401-0.27117-0.55493-0.82786-0.2709-1.2427 0.28496-0.41393 0.86426-0.53066 1.2983-0.25859 0.48837 0.30618 0.99831 0.58992 1.5167 0.84133 0.46213 0.22447 0.64492 0.76501 0.41057 1.2068-0.16404 0.31247-0.49306 0.49205-0.8352 0.49205m18.852-3.1947c-0.23903 0-0.47712-0.08619-0.65898-0.25859-0.36839-0.34928-0.37214-0.91765-0.0085-1.2705 0.40964-0.39508 0.80427-0.81978 1.1802-1.2597 0.32621-0.3843 0.91582-0.44266 1.317-0.13019 0.40307 0.31336 0.46213 0.87904 0.13686 1.2633-0.41245 0.48486-0.8502 0.95267-1.3001 1.389-0.18373 0.17778-0.42557 0.26667-0.66648 0.26667m-24.578-1.2633c-0.27184 0-0.53993-0.11224-0.72459-0.32863-0.40495-0.4714-0.7949-0.97422-1.1605-1.4941-0.29059-0.41034-0.1781-0.96883 0.25028-1.2472 0.43026-0.27655 1.0114-0.1688 1.303 0.24243 0.33371 0.47319 0.68991 0.93202 1.0583 1.3612 0.32714 0.3834 0.26996 0.94908-0.13217 1.2633-0.17435 0.13648-0.38526 0.20292-0.5943 0.20292m28.696-4.6143c-0.12467 0-0.25122-0.02424-0.37401-0.07452-0.47431-0.19844-0.69085-0.7273-0.48462-1.1825 0.23528-0.51719 0.449-1.0523 0.63929-1.5884 0.16592-0.4696 0.69741-0.72191 1.1886-0.56478 0.48931 0.15893 0.75365 0.66803 0.58867 1.1376-0.20716 0.58543-0.4415 1.1682-0.69647 1.7329-0.15561 0.33761-0.49962 0.53964-0.86145 0.53964m-32.269-1.5857c-0.38995 0-0.75553-0.23525-0.8877-0.60877-0.20716-0.58184-0.39182-1.1816-0.54837-1.7796-0.12373-0.48127 0.18185-0.96793 0.68335-1.0874 0.5015-0.12212 1.0105 0.1724 1.137 0.65367 0.14154 0.54861 0.31121 1.099 0.5015 1.6342 0.16873 0.4678-0.09468 0.9796-0.58399 1.1394-0.09935 0.03233-0.20154 0.04849-0.30184 0.04849m34.042-5.2958c-0.0225 0-0.04874-8.99e-4 -0.07312-0.0026-0.51649-0.03773-0.90269-0.4696-0.86239-0.96434 0.045-0.54143 0.06562-1.0963 0.06562-1.6503 0-0.49564 0.41995-0.92752 0.93738-0.92752 0.51837 0 0.93738 0.37262 0.93738 0.86916v0.05837c0 0.60069-0.02344 1.2023-0.07124 1.7886-0.03842 0.4714-0.44807 0.82876-0.93363 0.82876m-35.241-1.7096c-0.51743 0-0.93738-0.39148-0.93738-0.88712v-0.02065c0-0.60608 0.02625-1.2211 0.07592-1.8281 0.03937-0.49474 0.50056-0.85749 1.0077-0.82427 0.51556 0.03861 0.90176 0.4705 0.86145 0.96524-0.04593 0.56029-0.0703 1.1278-0.0703 1.6871 0 0.49564-0.41901 0.90777-0.93738 0.90777m34.625-5.355c-0.41901 0-0.8024-0.27116-0.90926-0.67881-0.14248-0.54862-0.31402-1.0981-0.50618-1.6333-0.16779-0.4696 0.09468-0.9805 0.58211-1.1412 0.49587-0.16252 1.0236 0.08888 1.1923 0.55759 0.2081 0.58273 0.3937 1.1816 0.55024 1.7787 0.12561 0.48127-0.17904 0.96883-0.68241 1.0891-0.07594 0.01974-0.15186 0.02783-0.22685 0.02783m-33.439-1.6306c-0.09935 0-0.20154-0.01617-0.29996-0.04849-0.49119-0.15893-0.75365-0.66893-0.5868-1.1385 0.20716-0.58722 0.44338-1.17 0.70116-1.732 0.20904-0.45434 0.7574-0.66265 1.2336-0.46152 0.47432 0.19933 0.69085 0.72909 0.48369 1.1825-0.23622 0.51539-0.45275 1.0496-0.64398 1.5875-0.13217 0.37443-0.49681 0.61058-0.8877 0.61058m30.439-4.8432c-0.3009 0-0.59711-0.13828-0.77708-0.39418-0.3309-0.4669-0.6871-0.92394-1.0602-1.3585-0.32996-0.3825-0.2709-0.94908 0.12842-1.2642 0.40026-0.31426 0.98987-0.25949 1.3198 0.12301 0.40964 0.47768 0.80052 0.9805 1.1642 1.4923 0.28965 0.41124 0.17623 0.96883-0.25216 1.2472-0.16029 0.10418-0.34214 0.15444-0.52306 0.15444m-26.878-1.3648c-0.20903 0-0.41807-0.06555-0.59336-0.20203-0.4012-0.31426-0.45932-0.87904-0.13217-1.2633 0.41151-0.48307 0.8502-0.94997 1.302-1.3863 0.36652-0.35288 0.95894-0.35377 1.3255-0.0052 0.36933 0.34928 0.3712 0.91765 0.0058 1.2696-0.40964 0.39597-0.80615 0.81978-1.182 1.258-0.18466 0.21729-0.45463 0.32953-0.72553 0.32953m21.637-3.6185c-0.17622 0-0.35339-0.04759-0.51181-0.14546-0.49025-0.30708-1.0011-0.58902-1.5186-0.83774-0.46119-0.22268-0.64679-0.76411-0.41338-1.2068 0.23247-0.44266 0.79396-0.62134 1.258-0.39687 0.57836 0.27835 1.1502 0.5944 1.6995 0.9374 0.43401 0.27027 0.5568 0.82696 0.27372 1.2427-0.18185 0.26308-0.48181 0.40675-0.7874 0.40675m-15.92-0.85229c-0.34214 0-0.67023-0.17868-0.83708-0.48935-0.23434-0.44266-0.0525-0.9832 0.4087-1.2086 0.58586-0.28553 1.1905-0.54233 1.797-0.75872 0.48931-0.17509 1.0255 0.061963 1.2073 0.52617 0.18091 0.46421-0.06562 0.9814-0.5493 1.1556-0.54087 0.19394-1.0808 0.42111-1.601 0.67612-0.13686 0.06644-0.28215 0.09877-0.42557 0.09877m9.0045-1.5713c-0.03468 0-0.07124-0.0017-0.1078-0.0062-0.56524-0.06284-1.138-0.09427-1.7051-0.09427-0.51743 0-0.95706-0.40226-0.95706-0.8979 0-0.49564 0.39932-0.89789 0.91676-0.89789h0.04031c0.63836 0 1.2851 0.035918 1.9198 0.10685 0.51462 0.056569 0.88301 0.50282 0.82302 0.99487-0.05438 0.45792-0.45932 0.79463-0.92988 0.79463" fill="#ffd949" stroke-width=".91742" onclick="; InkWeb.setAtt({el:['XMLID_91_'], att:'fill stroke stroke-width', val:'red black 5px'}); InkWeb.setAtt({el:['XMLID_91_'], att:'fill stroke stroke-width', val:'red black 5px'})" onmousedown="; InkWeb.transmitAtt({from:this, to:['text4645'], att:'fill'})"/><text transform="scale(.93074 1.0744)" x="19.42614" y="37.181683" fill="#ce9912" font-family="sans-serif" font-size="33.171px" letter-spacing="0px" opacity=".93" stroke-width=".094437" word-spacing="0px" style="line-height:1.25" onclick="; InkWeb.setAtt({el:['XMLID_91_'], att:'fill stroke stroke-width', val:'red black 5px'}); InkWeb.setAtt({el:['XMLID_91_'], att:'fill stroke stroke-width', val:'red black 5px'})" xml:space="preserve"><tspan x="19.42614" y="37.181683" fill="#ce9912" font-family="'Xtrusion BRK'" stroke-width=".094437">w</tspan></text>
</g></svg>
